<svg version="1.2" xmlns="http://www.w3.org/2000/svg" viewBox="0 0 330 366" width="330" height="366"><defs><linearGradient id="P" gradientUnits="userSpaceOnUse"/><linearGradient id="g1" x1="101" y1="-60" x2="165" y2="366" href="#P"><stop stop-color="#fff"/><stop offset="1" stop-color="#fff"/></linearGradient><clipPath clipPathUnits="userSpaceOnUse" id="cp1"><path d="m77 10h176v176h-176z"/></clipPath></defs><style>.a{fill:url(#g1)}.b{opacity:.3;fill:#fbeee7}</style><path class="a" d="m0 10c0-5.5 4.5-10 10-10h310c5.5 0 10 4.5 10 10v346c0 5.5-4.5 10-10 10h-310c-5.5 0-10-4.5-10-10z"/><g clip-path="url(#cp1)"><path class="b" d="m197.9 69.2c-17 10.4-18.9 32.5-18.2 46.5 12.9-15.2 28.8-23.2 37.9-24.7-14.6 5.7-25.6 17.1-34.8 29.6-3.7 6.5-7.1 12.8-9 19.8-2.1-8.2-5.7-15.8-9.6-23.6-10.8-17-24.2-32.5-42.7-41.1 11.7 2.7 31.6 14.3 47.2 34.9 1.9-18.1 1.1-46.9-20.1-61.5-23.3-16.1-52.7-21.6-67.2-23.4-3.3-0.4-5.6 3.2-3.8 6 4.8 7.4 11.2 20.5 12.2 38.4 0.9 17.9 2 51.1 66 56 9.5 17.4 14.2 26.6 15.9 43.2 0.2 1.3 1.9 1.4 2.2 0.2 1.2-4.8 4.3-29 15-41.3 49.5-0.9 51.8-26.4 53.4-40.1 1.4-12.6 6.2-21.9 10-27.6 1.9-2.7-0.3-6.4-3.5-6.1-11.8 0.9-33.3 4.1-50.9 14.8z"/></g></svg>